<svg width="520" height="357" viewBox="0 0 520 357" fill="none" xmlns="http://www.w3.org/2000/svg">
<circle cx="368" cy="153" r="152" fill="#DBE2E8"/>
<path d="M406.266 149.458C385.212 176.374 345.485 182.537 312.615 173.163C301.859 170.02 291.483 165.702 281.674 160.286C275.977 157.193 270.416 153.8 264.969 150.185C263.628 149.299 262.288 148.4 260.961 147.482C260.057 146.864 259.156 146.239 258.258 145.606C247.009 137.694 236.2 129.014 225.573 120.384C199.045 98.8416 171.789 76.6357 139.195 66.3571C132.48 64.2405 123.793 63.2504 119.641 68.937C116.038 73.8741 118.237 80.8643 121.286 86.1603C132.594 105.777 153.121 118.163 173.666 127.688C194.21 137.213 215.973 144.93 233.833 158.855C251.693 172.781 265.327 194.915 261.675 217.257C258.526 236.51 242.802 252.153 224.519 258.971C206.237 265.784 185.846 264.834 166.842 260.41C147.837 255.982 129.795 248.256 111.454 241.597C100.395 237.578 85.9385 234.798 78.6008 243.996C72.4039 251.767 75.9658 264.026 83.5122 270.494C91.0586 276.962 101.272 279.128 111.018 281.072C141.276 287.113 171.535 293.152 201.793 299.19C211.075 301.039 220.576 302.974 228.663 307.897C236.75 312.816 243.274 321.41 243.042 330.871C242.811 340.196 235.982 348.435 227.613 352.564C219.249 356.688 209.59 357.324 200.271 356.878C165.351 355.207 65.239 299.744 41.2275 292.654C25.7983 288.103 8.92898 281.417 2.42278 266.71C-5.67802 248.401 7.65228 226.25 25.8482 217.888C44.0397 209.522 65.1299 211.375 84.9571 214.191C104.784 217.007 125.265 220.591 144.566 215.24C163.866 209.89 181.548 192.448 179.645 172.518C177.986 155.176 162.362 142.109 145.919 136.35C133.048 131.839 119.355 130.613 105.834 128.583C102.081 128.024 98.3417 127.397 94.6389 126.625C85.156 124.639 75.9059 121.671 67.0382 117.768C57.7327 113.682 48.8923 108.61 40.6687 102.639C34.1096 97.8833 27.9799 92.5625 22.35 86.7372C21.4913 85.8469 20.6416 84.937 19.8011 84.0074C19.0015 83.1172 18.2109 82.2088 17.4387 81.2822C7.38876 69.2776 -0.0352017 54.4933 2.19121 39.2594C4.41274 24.0664 16.2574 11.4168 30.3599 5.33961C38.5106 1.82863 47.302 0.257092 56.2023 0.0299904C62.7103 -0.100038 69.2164 0.368247 75.6386 1.42893C105.357 6.17989 132.589 20.6145 158.309 36.2435C184.024 51.8726 209.085 69.0278 237.041 80.1694C264.996 91.3155 296.817 96.0347 325.177 85.956C353.536 75.8818 376.834 48.3934 375.449 18.3389C394.258 34.5312 410.242 54.884 417.32 78.666C424.399 102.448 421.554 129.909 406.266 149.458Z" fill="#3F3D56"/>
<path d="M270.742 118.397C272.568 118.397 274.049 116.917 274.049 115.092C274.049 113.266 272.568 111.786 270.742 111.786C268.916 111.786 267.436 113.266 267.436 115.092C267.436 116.917 268.916 118.397 270.742 118.397Z" fill="#22ABA6"/>
<path d="M387.506 76.5993C390.329 76.5993 392.618 74.3111 392.618 71.4886C392.618 68.6661 390.329 66.3779 387.506 66.3779C384.682 66.3779 382.394 68.6661 382.394 71.4886C382.394 74.3111 384.682 76.5993 387.506 76.5993Z" fill="#FF6584"/>
<path d="M52.208 234.164C53.2512 234.164 54.0969 233.319 54.0969 232.276C54.0969 231.233 53.2512 230.388 52.208 230.388C51.1648 230.388 50.3191 231.233 50.3191 232.276C50.3191 233.319 51.1648 234.164 52.208 234.164Z" fill="#FF6584"/>
<path d="M106.424 123.724C106.425 125.362 106.227 126.994 105.834 128.584C102.081 128.025 98.3416 127.398 94.6388 126.626C85.1559 124.64 75.9058 121.671 67.0381 117.769C68.4641 113.166 71.4937 109.227 75.577 106.667C79.6603 104.107 84.5266 103.095 89.2923 103.815C94.0581 104.536 98.4075 106.941 101.551 110.594C104.694 114.247 106.423 118.905 106.424 123.724Z" fill="#FF6584"/>
<path d="M354.794 106.576C355.861 106.576 356.726 105.712 356.726 104.645C356.726 103.579 355.861 102.714 354.794 102.714C353.727 102.714 352.862 103.579 352.862 104.645C352.862 105.712 353.727 106.576 354.794 106.576Z" fill="#F0F0F0"/>
<path d="M178.058 319.144C179.125 319.144 179.99 318.279 179.99 317.212C179.99 316.146 179.125 315.281 178.058 315.281C176.991 315.281 176.126 316.146 176.126 317.212C176.126 318.279 176.991 319.144 178.058 319.144Z" fill="#F0F0F0"/>
<path d="M205.772 345.942C206.839 345.942 207.704 345.077 207.704 344.01C207.704 342.944 206.839 342.079 205.772 342.079C204.705 342.079 203.841 342.944 203.841 344.01C203.841 345.077 204.705 345.942 205.772 345.942Z" fill="#F0F0F0"/>
<path d="M34.4887 269.635C35.5556 269.635 36.4205 268.77 36.4205 267.704C36.4205 266.637 35.5556 265.772 34.4887 265.772C33.4218 265.772 32.5569 266.637 32.5569 267.704C32.5569 268.77 33.4218 269.635 34.4887 269.635Z" fill="#F0F0F0"/>
<path d="M129.445 233.753C130.511 233.753 131.376 232.888 131.376 231.822C131.376 230.755 130.511 229.891 129.445 229.891C128.378 229.891 127.513 230.755 127.513 231.822C127.513 232.888 128.378 233.753 129.445 233.753Z" fill="#F0F0F0"/>
<path d="M119.903 42.0793C120.97 42.0793 121.835 41.2147 121.835 40.1481C121.835 39.0814 120.97 38.2168 119.903 38.2168C118.837 38.2168 117.972 39.0814 117.972 40.1481C117.972 41.2147 118.837 42.0793 119.903 42.0793Z" fill="#F0F0F0"/>
<path d="M236.667 193.329C237.734 193.329 238.599 192.465 238.599 191.398C238.599 190.331 237.734 189.467 236.667 189.467C235.6 189.467 234.735 190.331 234.735 191.398C234.735 192.465 235.6 193.329 236.667 193.329Z" fill="#F0F0F0"/>
<path d="M251.206 226.941C252.273 226.941 253.138 226.076 253.138 225.009C253.138 223.943 252.273 223.078 251.206 223.078C250.139 223.078 249.274 223.943 249.274 225.009C249.274 226.076 250.139 226.941 251.206 226.941Z" fill="#F0F0F0"/>
<path d="M77.0744 46.3135C77.0886 56.0646 74.7839 65.6794 70.3503 74.365C69.7642 75.5096 69.1433 76.6345 68.4875 77.7397C61.995 88.7007 52.2812 97.3951 40.6687 102.639C34.1096 97.8836 27.9799 92.5627 22.35 86.7374C21.4913 85.8472 20.6416 84.9373 19.8011 84.0077C19.0015 83.1175 18.2109 82.209 17.4387 81.2825C7.38874 69.2779 -0.035216 54.4936 2.1912 39.2597C4.41273 24.0667 16.2574 11.4171 30.3599 5.33987C38.5106 1.82889 47.302 0.257375 56.2023 0.0302734C63.1615 6.17429 68.6477 13.8059 72.2539 22.3589C72.7083 23.4353 73.1262 24.5254 73.5215 25.6291C75.8794 32.2703 77.0811 39.2664 77.0744 46.3135Z" fill="#22ABA6"/>
<path d="M105.243 49.4924C105.243 58.9535 96.002 67.7287 79.219 74.2101C75.8614 75.5091 72.2675 76.6855 68.4876 77.7393C54.3396 81.6817 37.5019 83.8665 19.8011 84.0073C19.0016 83.117 18.211 82.2086 17.4387 81.282C17.6295 81.2866 17.8203 81.2866 18.0111 81.2866C37.2339 81.2866 55.471 78.8521 70.3504 74.3645C73.099 73.5334 75.7343 72.634 78.2375 71.6666C93.6667 65.712 102.517 57.6272 102.517 49.4924C102.517 41.3577 93.6667 33.2774 78.2375 27.3183C76.711 26.7278 75.1391 26.1646 73.5216 25.6287C73.1263 24.5249 72.7083 23.4349 72.254 22.3584C74.671 23.1124 76.9926 23.9178 79.219 24.7748C96.002 31.2562 105.243 40.0359 105.243 49.4924Z" fill="#E4E4E4"/>
<path d="M20.8588 15.7356C21.9257 15.7356 22.7906 14.8709 22.7906 13.8043C22.7906 12.7377 21.9257 11.873 20.8588 11.873C19.7919 11.873 18.927 12.7377 18.927 13.8043C18.927 14.8709 19.7919 15.7356 20.8588 15.7356Z" fill="#F0F0F0"/>
<path d="M61.2946 28.0002C62.3615 28.0002 63.2264 27.1356 63.2264 26.069C63.2264 25.0023 62.3615 24.1377 61.2946 24.1377C60.2277 24.1377 59.3628 25.0023 59.3628 26.069C59.3628 27.1356 60.2277 28.0002 61.2946 28.0002Z" fill="#F0F0F0"/>
<path d="M40.3951 64.3795C50.7703 64.3795 59.1811 55.9711 59.1811 45.5989C59.1811 35.2267 50.7703 26.8184 40.3951 26.8184C30.0199 26.8184 21.6091 35.2267 21.6091 45.5989C21.6091 55.9711 30.0199 64.3795 40.3951 64.3795Z" fill="#F0F0F0"/>
<path opacity="0.3" d="M387.325 144.998C383.109 146.243 373.813 147.16 363.591 147.723C353.373 148.282 342.164 148.527 331.097 148.763C311.724 149.181 292.353 149.601 272.983 150.022C270.321 150.081 267.649 150.135 264.969 150.185C263.628 149.299 262.288 148.4 260.961 147.483C263.338 147.496 265.714 147.483 268.072 147.437C278.144 147.237 286.672 146.451 296.386 146.079C311.333 145.502 327.471 145.956 343.05 146.188C358.629 146.424 376.38 146.338 387.325 144.998Z" fill="#F0F0F0"/>
<path opacity="0.3" d="M89.9961 288.177L28.2427 236.747L88.2351 290.237C88.3513 290.432 88.5124 290.597 88.7052 290.718C88.898 290.839 89.1168 290.912 89.3435 290.932C89.5703 290.951 89.7984 290.917 90.009 290.83C90.2196 290.744 90.4065 290.609 90.5544 290.436C90.7022 290.263 90.8067 290.057 90.8591 289.836C90.9116 289.614 90.9104 289.384 90.8559 289.163C90.8013 288.942 90.6948 288.737 90.5453 288.566C90.3958 288.394 90.2075 288.261 89.9961 288.177H89.9961Z" fill="#F0F0F0"/>
<path d="M43.121 93.4055C44.1879 93.4055 45.0528 92.5408 45.0528 91.4742C45.0528 90.4076 44.1879 89.543 43.121 89.543C42.0541 89.543 41.1892 90.4076 41.1892 91.4742C41.1892 92.5408 42.0541 93.4055 43.121 93.4055Z" fill="#F0F0F0"/>
<path d="M205.366 315.25L213.357 315.249L217.158 284.438L205.365 284.438L205.366 315.25Z" fill="#FFB6B6"/>
<path d="M203.328 312.641L205.577 312.641L214.358 309.071L219.064 312.641H219.065C221.725 312.641 224.275 313.697 226.156 315.577C228.036 317.457 229.093 320.007 229.093 322.666V322.992L203.329 322.993L203.328 312.641Z" fill="#2F2E41"/>
<path d="M145.526 315.25L137.536 315.249L133.735 284.438L145.528 284.438L145.526 315.25Z" fill="#FFB6B6"/>
<path d="M147.565 322.993L121.8 322.992V322.666C121.8 320.007 122.857 317.457 124.737 315.577C126.618 313.697 129.169 312.641 131.828 312.641H131.829L136.535 309.071L145.316 312.641L147.565 312.641L147.565 322.993Z" fill="#2F2E41"/>
<path d="M174.157 79.1172L166.067 85.2762L144.574 90.9663C144.574 90.9663 152.275 144.998 148.641 148.632C145.006 152.266 148.284 152.363 147.554 157.084C146.823 161.804 143.913 174.266 143.913 174.266H208.059C208.059 174.266 208.576 166.521 205.414 164.844C202.252 163.166 208.329 155.338 205.745 154.029C203.161 152.72 206.795 141.365 206.795 141.365L214.672 104.189L193.721 87.8011L190.535 80.1262L174.157 79.1172Z" fill="#22ABA6"/>
<path d="M184.253 127.399C185.799 127.399 187.052 126.146 187.052 124.6C187.052 123.055 185.799 121.802 184.253 121.802C182.707 121.802 181.453 123.055 181.453 124.6C181.453 126.146 182.707 127.399 184.253 127.399Z" fill="#F2F2F2"/>
<path d="M143.913 174.266L141.268 242.36C141.268 242.36 129.846 292.654 131.83 293.976C133.814 295.298 134.655 303.182 134.655 303.182L145.897 304.505C145.897 304.505 145.897 299.216 148.542 297.232C151.187 295.249 175.655 202.032 175.655 202.032L199.526 292.159C199.526 292.159 200.124 297.232 202.108 297.232C204.091 297.232 204.753 304.505 204.753 304.505H215.995V297.232C215.995 297.232 221.046 295.631 219.062 290.342C217.078 285.054 208.059 174.266 208.059 174.266H143.913Z" fill="#2F2E41"/>
<path d="M182.559 75.0587C190.046 75.0587 196.116 68.9909 196.116 61.5059C196.116 54.0209 190.046 47.9531 182.559 47.9531C175.072 47.9531 169.002 54.0209 169.002 61.5059C169.002 68.9909 175.072 75.0587 182.559 75.0587Z" fill="#FFB6B6"/>
<path opacity="0.1" d="M205.745 122.368L208.39 124.351L209.713 115.096L205.745 122.368Z" fill="black"/>
<path d="M145.842 90.9135C145.842 90.9135 142.536 90.2523 140.552 96.2023C138.568 102.152 131.294 124.63 131.294 128.597C131.294 132.563 176.595 150.065 176.595 150.065L171.882 133.534L151.133 122.647L145.842 90.9135Z" fill="#22ABA6"/>
<path d="M178.697 147.614C182.962 147.614 186.42 144.157 186.42 139.892C186.42 135.628 182.962 132.171 178.697 132.171C174.431 132.171 170.973 135.628 170.973 139.892C170.973 144.157 174.431 147.614 178.697 147.614Z" fill="#FFB6B6"/>
<path opacity="0.1" d="M150.528 114.458L151.133 122.647L170.32 132.715L153.254 121.271L150.528 114.458Z" fill="black"/>
<path d="M196.653 115.624H196.404V108.808C196.404 108.29 196.302 107.777 196.104 107.298C195.905 106.819 195.615 106.384 195.248 106.018C194.882 105.652 194.447 105.361 193.968 105.163C193.489 104.964 192.976 104.862 192.458 104.862H178.011C177.493 104.862 176.98 104.964 176.501 105.163C176.022 105.361 175.587 105.652 175.221 106.018C174.854 106.384 174.563 106.819 174.365 107.298C174.167 107.777 174.065 108.29 174.065 108.808V146.205C174.065 146.723 174.167 147.236 174.365 147.715C174.563 148.194 174.854 148.629 175.221 148.995C175.587 149.361 176.022 149.652 176.501 149.85C176.98 150.048 177.493 150.151 178.011 150.151H192.458C192.976 150.151 193.489 150.048 193.968 149.85C194.447 149.652 194.882 149.361 195.248 148.995C195.615 148.629 195.905 148.194 196.104 147.715C196.302 147.236 196.404 146.723 196.404 146.205V120.477H196.653V115.624Z" fill="#F0F0F0"/>
<path d="M214.672 104.188C214.672 104.188 216.656 105.511 217.979 111.461C219.302 117.411 227.898 139.888 224.592 145.177C221.285 150.466 220.309 156.111 209.067 148.178L193.511 133.939L204.753 123.361L209.382 126.666L214.672 104.188Z" fill="#22ABA6"/>
<path d="M185.411 121.531C187.238 121.531 188.718 120.051 188.718 118.225C188.718 116.4 187.238 114.92 185.411 114.92C183.585 114.92 182.105 116.4 182.105 118.225C182.105 120.051 183.585 121.531 185.411 121.531Z" fill="#22ABA6"/>
<path d="M194.983 133.189C199.249 133.189 202.707 129.732 202.707 125.468C202.707 121.203 199.249 117.746 194.983 117.746C190.717 117.746 187.259 121.203 187.259 125.468C187.259 129.732 190.717 133.189 194.983 133.189Z" fill="#FFB6B6"/>
<path opacity="0.1" d="M150.163 139.172L172.336 148.977L149.547 144.524L150.163 139.172Z" fill="black"/>
<path d="M168.882 64.2069L167.021 57.125C166.535 55.2772 166.045 53.3921 166.154 51.4846C166.263 49.5772 167.073 47.6089 168.68 46.5756C170.288 45.5422 172.741 45.7863 173.776 47.3928C173.972 44.8276 176.307 42.8545 178.783 42.1555C181.26 41.4565 183.889 41.7329 186.46 41.8508C189.031 41.9688 191.744 41.8864 193.963 40.583C194.132 41.0902 194.121 41.6401 193.932 42.14C193.742 42.6399 193.386 43.0592 192.923 43.327C193.475 43.4774 194.063 43.4128 194.569 43.1462C195.074 42.8795 195.46 42.4308 195.647 41.8908C195.664 43.3764 195.115 44.8128 194.111 45.9084C195.068 45.4335 196.168 45.3317 197.197 45.6228C198.225 45.9139 199.108 46.5771 199.675 47.4833C200.807 49.4458 200.173 51.9104 199.51 54.077L196.11 65.197C195.594 63.5066 195.497 61.7219 195.221 59.9763C194.945 58.2307 194.455 56.448 193.302 55.1081C192.149 53.7682 190.191 52.9922 188.554 53.6575C187.635 54.0308 186.934 54.788 186.105 55.3315C184.402 56.4467 182.237 56.6066 180.215 56.3797C178.193 56.1528 176.222 55.5771 174.2 55.3471C172.934 55.2031 171.521 55.2412 170.566 56.0843C169.909 56.7667 169.475 57.6328 169.322 58.5675C168.871 60.4306 168.693 62.3494 168.795 64.2635" fill="#2F2E41"/>
</svg>
