<svg width="661" height="413" viewBox="0 0 661 413" fill="none" xmlns="http://www.w3.org/2000/svg">
<path d="M172.752 251.7C242.203 251.7 298.504 195.355 298.504 125.85C298.504 56.3449 242.203 0 172.752 0C103.301 0 47 56.3449 47 125.85C47 195.355 103.301 251.7 172.752 251.7Z" fill="#F2F2F2"/>
<path d="M0 30.2168C0 76.006 28.7034 113.058 64.1752 113.058L0 30.2168Z" fill="#2F2E41"/>
<path d="M64.1753 113.058C64.1753 66.7545 96.2066 29.2861 135.791 29.2861L64.1753 113.058Z" fill="#22ABA6"/>
<path d="M23.252 34.3682C23.252 77.863 41.5556 113.058 64.1753 113.058L23.252 34.3682Z" fill="#22ABA6"/>
<path d="M64.1753 113.059C64.1753 53.8928 101.198 6.0166 146.952 6.0166L64.1753 113.059Z" fill="#2F2E41"/>
<path d="M50.6744 113.642C50.6744 113.642 59.7755 113.362 62.5184 111.407C65.2612 109.453 76.5182 107.118 77.1986 110.253C77.879 113.388 90.8759 125.845 80.6008 125.928C70.3257 126.011 56.726 124.326 53.9884 122.657C51.2509 120.988 50.6744 113.642 50.6744 113.642Z" fill="#A8A8A8"/>
<path opacity="0.2" d="M80.7841 124.837C70.509 124.92 56.9094 123.235 54.1718 121.566C52.087 120.295 51.2562 115.735 50.9783 113.631C50.7858 113.639 50.6744 113.643 50.6744 113.643C50.6744 113.643 51.2509 120.989 53.9885 122.657C56.726 124.326 70.3257 126.011 80.6008 125.928C83.5668 125.904 84.5913 124.848 84.5351 123.284C84.123 124.229 82.9918 124.819 80.7841 124.837Z" fill="black"/>
<path d="M117.256 265.844C178.229 265.844 227.658 259.115 227.658 250.813C227.658 242.512 178.229 235.782 117.256 235.782C56.2825 235.782 6.85388 242.512 6.85388 250.813C6.85388 259.115 56.2825 265.844 117.256 265.844Z" fill="#3F3D56"/>
<path opacity="0.1" d="M117.256 263.433C168.447 263.433 209.946 257.783 209.946 250.813C209.946 243.843 168.447 238.193 117.256 238.193C66.0643 238.193 24.5654 243.843 24.5654 250.813C24.5654 257.783 66.0643 263.433 117.256 263.433Z" fill="black"/>
<path d="M493.921 413C586.196 413 661 402.815 661 390.252C661 377.689 586.196 367.505 493.921 367.505C401.646 367.505 326.842 377.689 326.842 390.252C326.842 402.815 401.646 413 493.921 413Z" fill="#3F3D56"/>
<path d="M183.379 395.055C238.809 395.055 283.744 388.937 283.744 381.39C283.744 373.843 238.809 367.726 183.379 367.726C127.949 367.726 83.0134 373.843 83.0134 381.39C83.0134 388.937 127.949 395.055 183.379 395.055Z" fill="#3F3D56"/>
<path d="M273.117 369.868C326.252 383.458 428.388 352.143 439.606 316.692" stroke="#2F2E41" stroke-width="2" stroke-miterlimit="10"/>
<path d="M182.788 153.029C182.788 153.029 259.538 131.759 264.262 200.296C268.985 268.834 201.09 288.332 254.225 301.922" stroke="#2F2E41" stroke-width="2" stroke-miterlimit="10"/>
<path d="M108.637 317.45C108.637 317.45 131.705 311.057 133.125 331.657C134.544 352.256 114.138 358.117 130.108 362.201" stroke="#2F2E41" stroke-width="2" stroke-miterlimit="10"/>
<path d="M459.735 332.787L455.084 362.504C455.084 362.504 432.188 374.677 448.287 375.035C464.386 375.393 540.23 375.035 540.23 375.035C540.23 375.035 554.898 375.035 531.644 362.146L526.993 330.997L459.735 332.787Z" fill="#2F2E41"/>
<path opacity="0.1" d="M445.049 374.712C448.705 371.457 455.084 368.064 455.084 368.064L459.735 338.348L526.993 338.411L531.644 367.706C537.066 370.712 540.426 373.016 542.391 374.783C545.377 374.102 548.641 371.567 531.644 362.146L526.993 330.997L459.735 332.787L455.084 362.504C455.084 362.504 435.845 372.734 445.049 374.712Z" fill="black"/>
<path d="M633.861 125.666H352.152C346.268 125.666 341.498 130.44 341.498 136.328V326.242C341.498 332.131 346.268 336.905 352.152 336.905H633.861C639.745 336.905 644.515 332.131 644.515 326.242V136.328C644.515 130.44 639.745 125.666 633.861 125.666Z" fill="#2F2E41"/>
<path d="M634.319 136.943H351.694V295.193H634.319V136.943Z" fill="#3F3D56"/>
<path d="M493.006 133.722C493.994 133.722 494.795 132.92 494.795 131.932C494.795 130.943 493.994 130.142 493.006 130.142C492.018 130.142 491.218 130.943 491.218 131.932C491.218 132.92 492.018 133.722 493.006 133.722Z" fill="#F2F2F2"/>
<path d="M644.515 307.725V326.242C644.515 327.642 644.239 329.029 643.704 330.322C643.169 331.616 642.384 332.792 641.395 333.782C640.405 334.772 639.231 335.557 637.938 336.093C636.645 336.629 635.26 336.904 633.861 336.904H352.152C350.753 336.904 349.367 336.629 348.075 336.093C346.782 335.557 345.607 334.772 344.618 333.782C343.629 332.792 342.844 331.616 342.309 330.322C341.773 329.029 341.498 327.642 341.498 326.242V307.725H644.515Z" fill="#2F2E41"/>
<path d="M572.07 394.368V397.948H379.598V395.084L379.863 394.368L384.607 381.479H568.134L572.07 394.368Z" fill="#2F2E41"/>
<path d="M646.139 390.863C645.788 392.363 644.465 393.946 641.474 395.442C630.741 400.813 608.918 394.01 608.918 394.01C608.918 394.01 592.104 391.146 592.104 383.627C592.576 383.304 593.068 383.011 593.578 382.75C598.09 380.361 613.051 374.466 639.579 383C641.534 383.614 643.279 384.759 644.622 386.307C645.697 387.566 646.54 389.164 646.139 390.863Z" fill="#2F2E41"/>
<path opacity="0.1" d="M646.139 390.863C633.002 395.901 621.293 396.277 609.276 387.924C603.216 383.713 597.71 382.671 593.578 382.75C598.09 380.361 613.051 374.466 639.579 383C641.534 383.614 643.279 384.759 644.622 386.307C645.697 387.566 646.54 389.164 646.139 390.863Z" fill="black"/>
<path d="M629.668 387.924C632.236 387.924 634.319 387.283 634.319 386.492C634.319 385.701 632.236 385.06 629.668 385.06C627.099 385.06 625.017 385.701 625.017 386.492C625.017 387.283 627.099 387.924 629.668 387.924Z" fill="#F2F2F2"/>
<path d="M493.006 329.207C496.76 329.207 499.804 326.161 499.804 322.404C499.804 318.647 496.76 315.602 493.006 315.602C489.252 315.602 486.209 318.647 486.209 322.404C486.209 326.161 489.252 329.207 493.006 329.207Z" fill="#F2F2F2"/>
<path opacity="0.1" d="M572.07 394.368V397.949H379.598V395.084L379.863 394.368H572.07Z" fill="black"/>
<path d="M186.921 93.9443H64.1211V236.929H186.921V93.9443Z" fill="#2F2E41"/>
<path d="M199.319 79.7637H51.723V130.576H199.319V79.7637Z" fill="#3F3D56"/>
<path d="M199.319 140.03H51.723V190.843H199.319V140.03Z" fill="#3F3D56"/>
<path d="M199.319 200.296H51.723V251.108H199.319V200.296Z" fill="#3F3D56"/>
<path opacity="0.4" d="M169.8 88.627H160.354V98.0805H169.8V88.627Z" fill="#22ABA6"/>
<path opacity="0.8" d="M183.379 88.627H173.933V98.0805H183.379V88.627Z" fill="#22ABA6"/>
<path d="M196.958 88.627H187.511V98.0805H196.958V88.627Z" fill="#22ABA6"/>
<path opacity="0.4" d="M169.8 148.302H160.354V157.755H169.8V148.302Z" fill="#22ABA6"/>
<path opacity="0.8" d="M183.379 148.302H173.933V157.755H183.379V148.302Z" fill="#22ABA6"/>
<path d="M196.958 148.302H187.511V157.755H196.958V148.302Z" fill="#22ABA6"/>
<path opacity="0.4" d="M169.8 207.978H160.354V217.431H169.8V207.978Z" fill="#22ABA6"/>
<path opacity="0.8" d="M183.379 207.978H173.933V217.431H183.379V207.978Z" fill="#22ABA6"/>
<path d="M196.958 207.978H187.511V217.431H196.958V207.978Z" fill="#22ABA6"/>
<path d="M186.921 364.551C212.68 364.551 233.562 343.653 233.562 317.874C233.562 292.095 212.68 271.197 186.921 271.197C161.162 271.197 140.281 292.095 140.281 317.874C140.281 343.653 161.162 364.551 186.921 364.551Z" fill="#2F2E41"/>
<path d="M179.836 354.507H165.667V379.913H179.836V354.507Z" fill="#2F2E41"/>
<path d="M208.175 354.507H194.006V379.913H208.175V354.507Z" fill="#2F2E41"/>
<path d="M177.475 384.639C183.996 384.639 189.283 382.655 189.283 380.208C189.283 377.76 183.996 375.776 177.475 375.776C170.954 375.776 165.667 377.76 165.667 380.208C165.667 382.655 170.954 384.639 177.475 384.639Z" fill="#2F2E41"/>
<path d="M205.813 384.048C212.335 384.048 217.621 382.064 217.621 379.617C217.621 377.17 212.335 375.186 205.813 375.186C199.292 375.186 194.006 377.17 194.006 379.617C194.006 382.064 199.292 384.048 205.813 384.048Z" fill="#2F2E41"/>
<path d="M188.102 322.01C196.906 322.01 204.042 314.868 204.042 306.057C204.042 297.247 196.906 290.104 188.102 290.104C179.298 290.104 172.161 297.247 172.161 306.057C172.161 314.868 179.298 322.01 188.102 322.01Z" fill="white"/>
<path d="M188.102 311.374C191.036 311.374 193.415 308.994 193.415 306.057C193.415 303.12 191.036 300.739 188.102 300.739C185.167 300.739 182.788 303.12 182.788 306.057C182.788 308.994 185.167 311.374 188.102 311.374Z" fill="#3F3D56"/>
<path d="M141.678 274.467C137.912 257.588 149.951 240.532 168.567 236.372C187.183 232.212 205.327 242.523 209.093 259.402C212.859 276.281 200.522 282.506 181.906 286.666C163.289 290.826 145.444 291.346 141.678 274.467Z" fill="#22ABA6"/>
<path d="M230.665 308.564C242.506 303.493 250.815 296.366 249.224 292.646C247.633 288.926 236.744 290.022 224.904 295.093C213.064 300.165 204.755 307.292 206.346 311.012C207.937 314.732 218.825 313.636 230.665 308.564Z" fill="#2F2E41"/>
<path d="M143.288 339.879C155.129 334.807 163.438 327.68 161.847 323.96C160.256 320.24 149.368 321.336 137.527 326.408C125.687 331.479 117.378 338.606 118.969 342.326C120.56 346.046 131.448 344.951 143.288 339.879Z" fill="#2F2E41"/>
<path d="M214.079 331.463C214.079 336.032 202.325 345.053 189.283 345.053C176.24 345.053 163.896 336.623 163.896 332.054C163.896 327.486 176.24 328.509 189.283 328.509C202.325 328.509 214.079 326.895 214.079 331.463Z" fill="white"/>
</svg>
